<?xml version="1.0" encoding="UTF-8"?>
<svg width="24px" height="24px" viewBox="0 0 24 24" version="1.1" xmlns="http://www.w3.org/2000/svg" xmlns:xlink="http://www.w3.org/1999/xlink">
    <!-- Generator: sketchtool 48.2 (47327) - http://www.bohemiancoding.com/sketch -->
    <title>0AB6283B-C70B-4F14-B1C3-E10EC17CB004</title>
    <desc>Created with sketchtool.</desc>
    <defs></defs>
    <g id="Symbols" stroke="none" stroke-width="1" fill="none" fill-rule="evenodd">
        <g id="icon/arrow_down_24">
            <rect id="Rectangle-3" x="0" y="0" width="24" height="24"></rect>
            <path d="M14.083815,18.2639344 C14.2456647,18.4213115 14.4479769,18.5 14.6705202,18.5 C14.8728324,18.5 15.0953757,18.4213115 15.2572254,18.2639344 C15.5809249,17.9491803 15.5809249,17.4377049 15.2572254,17.1229508 L10.5028902,12.5 L15.2572254,7.87704918 C15.5809249,7.56229508 15.5809249,7.05081967 15.2572254,6.73606557 C14.933526,6.42131148 14.4075145,6.42131148 14.083815,6.73606557 L8.74277457,11.9295082 C8.58092486,12.0868852 8.5,12.2836066 8.5,12.5 C8.5,12.7163934 8.58092486,12.9131148 8.74277457,13.0704918 L14.083815,18.2639344 Z" id="Shape" fill="#807E79" fill-rule="nonzero" transform="translate(12.000000, 12.500000) rotate(-90.000000) translate(-12.000000, -12.500000) "></path>
        </g>
    </g>
</svg>