<?xml version="1.0" encoding="UTF-8"?>
<svg width="24px" height="24px" viewBox="0 0 24 24" version="1.1" xmlns="http://www.w3.org/2000/svg" xmlns:xlink="http://www.w3.org/1999/xlink">
    <!-- Generator: sketchtool 48.2 (47327) - http://www.bohemiancoding.com/sketch -->
    <title>A85A792D-9367-49F2-87A0-A70E4C524269</title>
    <desc>Created with sketchtool.</desc>
    <defs></defs>
    <g id="Symbols" stroke="none" stroke-width="1" fill="none" fill-rule="evenodd">
        <g id="icon/arrow_down_version_2_24">
            <rect id="Rectangle-3" x="0" y="0" width="24" height="24"></rect>
            <g id="Group" transform="translate(6.000000, 4.000000)" fill="#668FF9">
                <path d="M6,0 L6,0 C6.55228475,-1.01453063e-16 7,0.44771525 7,1 L7,14.9999913 C7,15.5499854 6.55414174,15.9958436 6.0041477,15.9958436 C6.00276513,15.9958436 6.00138256,15.9958407 6,15.995835 L5.99583503,15.9958176 C5.44518088,15.9935242 5,15.5464852 5,14.9958263 L5,1 C5,0.44771525 5.44771525,1.01453063e-16 6,0 Z" id="Rectangle-13"></path>
                <g id="back" transform="translate(6.000000, 13.500000) rotate(-90.000000) translate(-6.000000, -13.500000) translate(2.500000, 7.500000)" fill-rule="nonzero">
                    <path d="M5.58381503,11.7639344 C5.74566474,11.9213115 5.94797688,12 6.17052023,12 C6.37283237,12 6.59537572,11.9213115 6.75722543,11.7639344 C7.08092486,11.4491803 7.08092486,10.9377049 6.75722543,10.6229508 L2.00289017,6 L6.75722543,1.37704918 C7.08092486,1.06229508 7.08092486,0.550819672 6.75722543,0.236065574 C6.43352601,-0.0786885246 5.90751445,-0.0786885246 5.58381503,0.236065574 L0.242774566,5.4295082 C0.0809248555,5.58688525 0,5.78360656 0,6 C0,6.21639344 0.0809248555,6.41311475 0.242774566,6.5704918 L5.58381503,11.7639344 Z" id="Shape"></path>
                </g>
            </g>
        </g>
    </g>
</svg>