<?xml version="1.0" encoding="UTF-8"?>
<svg width="104px" height="104px" viewBox="0 0 104 104" version="1.1" xmlns="http://www.w3.org/2000/svg" xmlns:xlink="http://www.w3.org/1999/xlink">
    <!-- Generator: sketchtool 48.2 (47327) - http://www.bohemiancoding.com/sketch -->
    <title>0DA40E96-AA1C-41C4-B38E-CC3EE29EBEE9</title>
    <desc>Created with sketchtool.</desc>
    <defs></defs>
    <g id="Symbols" stroke="none" stroke-width="1" fill="none" fill-rule="evenodd">
        <g id="icon/delivery_104">
            <rect id="Rectangle-6" x="0" y="0" width="104" height="104"></rect>
            <rect id="Rectangle-5" fill="#EBEBEB" opacity="0.800000012" x="8" y="8" width="88" height="88" rx="44"></rect>
            <g id="Group" transform="translate(52.000000, 4.000000)">
                <circle id="Oval-5" stroke="#BA006D" stroke-width="3" cx="24" cy="24" r="22.5"></circle>
                <rect id="Rectangle-10" fill="#BA006D" transform="translate(24.500000, 17.500000) rotate(-270.000000) translate(-24.500000, -17.500000) " x="17" y="16" width="15" height="3" rx="1.5"></rect>
                <rect id="Rectangle-10" fill="#BA006D" transform="translate(31.000000, 23.500000) rotate(-180.000000) translate(-31.000000, -23.500000) " x="23" y="22" width="16" height="3" rx="1.5"></rect>
            </g>
            <g id="Group-2" transform="translate(4.000000, 50.000000)" fill="#4A4A4A">
                <path d="M60,47 C62.209139,47 64,45.209139 64,43 C64,40.790861 62.209139,39 60,39 C57.790861,39 56,40.790861 56,43 C56,45.209139 57.790861,47 60,47 Z M60,50 C56.1340068,50 53,46.8659932 53,43 C53,39.1340068 56.1340068,36 60,36 C63.8659932,36 67,39.1340068 67,43 C67,46.8659932 63.8659932,50 60,50 Z" id="Oval-7" fill-rule="nonzero"></path>
                <path d="M23,47 C25.209139,47 27,45.209139 27,43 C27,40.790861 25.209139,39 23,39 C20.790861,39 19,40.790861 19,43 C19,45.209139 20.790861,47 23,47 Z M23,50 C19.1340068,50 16,46.8659932 16,43 C16,39.1340068 19.1340068,36 23,36 C26.8659932,36 30,39.1340068 30,43 C30,46.8659932 26.8659932,50 23,50 Z" id="Oval-7-Copy" fill-rule="nonzero"></path>
                <path d="M54,17 L54,26 L63,26 L63,20.1149877 L59.9930812,17 L54,17 Z M54,14 L59.9930812,14 C60.8070963,14 61.5861659,14.3307863 62.1515125,14.9164516 L65.1584313,18.0314393 C65.6982899,18.5907004 66,19.3376717 66,20.1149877 L66,26 C66,27.6568542 64.6568542,29 63,29 L54,29 C52.3431458,29 51,27.6568542 51,26 L51,17 C51,15.3431458 52.3431458,14 54,14 Z" id="Rectangle-7" fill-rule="nonzero"></path>
                <rect id="Rectangle-8" x="0" y="29" width="21" height="3" rx="1.5"></rect>
                <rect id="Rectangle-8-Copy-5" x="31" y="39" width="21" height="3" rx="1.5"></rect>
                <rect id="Rectangle-8-Copy-9" x="8" y="0" width="40" height="3" rx="1.5"></rect>
                <rect id="Rectangle-8-Copy-3" x="8" y="39" width="7" height="3" rx="1.5"></rect>
                <rect id="Rectangle-8-Copy-6" x="68" y="39" width="5" height="3" rx="1.5"></rect>
                <rect id="Rectangle-8-Copy-4" transform="translate(9.500000, 37.500000) rotate(-90.000000) translate(-9.500000, -37.500000) " x="5" y="36" width="9" height="3" rx="1.5"></rect>
                <rect id="Rectangle-8-Copy-8" transform="translate(9.500000, 7.000000) rotate(-90.000000) translate(-9.500000, -7.000000) " x="2.5" y="5.5" width="14" height="3" rx="1.5"></rect>
                <rect id="Rectangle-8-Copy" x="3" y="22" width="21" height="3" rx="1.5"></rect>
                <rect id="Rectangle-8-Copy-2" x="6" y="15" width="21" height="3" rx="1.5"></rect>
                <rect id="Rectangle-8-Copy-7" x="45" y="7" width="18" height="3" rx="1.5"></rect>
                <rect id="Rectangle-11" x="45" y="0" width="3" height="42" rx="1.5"></rect>
                <rect id="Rectangle-11-Copy" x="70" y="16" width="3" height="26" rx="1.5"></rect>
                <path d="M60.4604527,9.6545957 C59.8289482,9.11841138 59.751676,8.17181259 60.2878603,7.54030814 C60.8240446,6.90880369 61.7706434,6.83153146 62.4021479,7.36771578 L72.4715902,16.3684892 C73.1030947,16.9046735 73.1803669,17.8512723 72.6441826,18.4827768 C72.1079983,19.1142812 71.1613995,19.1915534 70.529895,18.6553691 L60.4604527,9.6545957 Z" id="Path-8" fill-rule="nonzero"></path>
            </g>
        </g>
    </g>
</svg>