<?xml version="1.0" encoding="UTF-8"?>
<svg width="24px" height="24px" viewBox="0 0 24 24" version="1.1" xmlns="http://www.w3.org/2000/svg" xmlns:xlink="http://www.w3.org/1999/xlink">
    <!-- Generator: sketchtool 48.2 (47327) - http://www.bohemiancoding.com/sketch -->
    <title>62BE506B-9D44-4C3E-A32E-4DFAB74420E3</title>
    <desc>Created with sketchtool.</desc>
    <defs></defs>
    <g id="Symbols" stroke="none" stroke-width="1" fill="none" fill-rule="evenodd">
        <g id="icon/eye_24" fill="#666561" fill-rule="nonzero">
            <g id="look" transform="translate(2.000000, 6.000000)">
                <path d="M19.9534687,6.25165404 C19.9467224,6.23439696 19.9393292,6.21741525 19.9312891,6.20070892 C19.0443814,4.37109085 17.6640694,2.82346088 15.9397885,1.72506584 C14.1680985,0.596470912 12.1141729,0 10.0001775,0 C7.88618202,0 5.83216397,0.596562705 4.06047406,1.72524943 C2.34247732,2.81960557 0.966046796,4.36007569 0.0787694059,6.18088164 C-0.0206692434,6.37006701 -0.0280624515,6.59881516 0.0686037447,6.79828135 C0.95541906,8.6281748 2.33573102,10.1760802 4.06019681,11.2746588 C5.83197914,12.4034373 7.88599719,13 10.0001775,13 C12.1142653,13 14.1682834,12.4034373 15.9399733,11.2747506 C17.6644391,10.1762637 19.0446586,8.62845018 19.9315664,6.79874032 C20.0145551,6.62736279 20.022318,6.42899811 19.9534687,6.25165404 Z M10.0001775,11.6230132 C6.4345256,11.6230132 3.12264561,9.62293554 1.46915461,6.49986231 C3.12264561,3.37678908 6.4345256,1.3768032 10.0001775,1.3768032 C13.5657369,1.3768032 16.8777093,3.37697267 18.5312003,6.4999541 C16.8776169,9.62275195 13.5656445,11.6230132 10.0001775,11.6230132 Z" id="Shape"></path>
                <path d="M10,3.46666667 C8.3218662,3.46666667 6.95652174,4.82745998 6.95652174,6.5 C6.95652174,8.17254002 8.3218662,9.53333333 10,9.53333333 C11.6781338,9.53333333 13.0434783,8.17254002 13.0434783,6.5 C13.0434783,4.82745998 11.6781338,3.46666667 10,3.46666667 Z M10,8.15106885 C9.08659593,8.15106885 8.34340918,7.41035939 8.34340918,6.5 C8.34340918,5.58964061 9.08659593,4.84893115 10,4.84893115 C10.9134041,4.84893115 11.6565908,5.58964061 11.6565908,6.5 C11.6565908,7.41035939 10.9134041,8.15106885 10,8.15106885 Z" id="Shape"></path>
            </g>
        </g>
    </g>
</svg>