<?xml version="1.0" encoding="UTF-8"?>
<svg width="24px" height="24px" viewBox="0 0 24 24" version="1.1" xmlns="http://www.w3.org/2000/svg" xmlns:xlink="http://www.w3.org/1999/xlink">
    <!-- Generator: sketchtool 48.2 (47327) - http://www.bohemiancoding.com/sketch -->
    <title>FB32D295-AEBA-4578-94D9-76D7ED8393EF</title>
    <desc>Created with sketchtool.</desc>
    <defs></defs>
    <g id="Symbols" stroke="none" stroke-width="1" fill="none" fill-rule="evenodd">
        <g id="icon/heart_24">
            <rect id="Rectangle-3" x="0" y="0" width="24" height="24"></rect>
            <g id="heart" transform="translate(3.000000, 4.000000)" fill="#666561" fill-rule="nonzero">
                <path d="M16.5356314,1.50003846 C15.5936822,0.550038462 14.3466483,0.0308076923 13.0157161,0.0308076923 C11.6847839,0.0308076923 10.4339364,0.553884615 9.49198729,1.50388462 L9.00003814,2.00003846 L8.50046186,1.49619231 C7.55851271,0.546192308 6.30385169,0.0192692308 4.97291949,0.0192692308 C3.64580085,0.0192692308 2.39495339,0.542346154 1.4568178,1.4885 C0.514868644,2.4385 -0.00377542373,3.70003846 3.81355932e-05,5.04234615 C3.81355932e-05,6.38465385 0.522495763,7.64234615 1.46444492,8.59234615 L8.62630932,15.8154231 C8.72546186,15.9154231 8.85893644,15.9692692 8.98859746,15.9692692 C9.11825847,15.9692692 9.25173305,15.9192692 9.35088559,15.8192692 L16.5280042,8.60773077 C17.4699534,7.65773077 17.9885975,6.39619231 17.9885975,5.05388462 C17.992411,3.71157692 17.4775805,2.45003846 16.5356314,1.50003846 Z M15.803428,7.87311538 L8.98859746,14.7192692 L2.18902119,7.86157692 C1.44156356,7.10773077 1.02969915,6.10773077 1.02969915,5.04234615 C1.02969915,3.97696154 1.43775,2.97696154 2.18520763,2.22696154 C2.92885169,1.47696154 3.92037712,1.06157692 4.97291949,1.06157692 C6.02927542,1.06157692 7.02461441,1.47696154 7.77207203,2.23080769 L8.63393644,3.10003846 C8.83605508,3.30388462 9.16020763,3.30388462 9.36232627,3.10003846 L10.2165636,2.2385 C10.9640212,1.48465385 11.9593602,1.06926923 13.0119025,1.06926923 C14.0644449,1.06926923 15.0559703,1.48465385 15.803428,2.23465385 C16.5508856,2.9885 16.9589364,3.9885 16.9589364,5.05388462 C16.96275,6.11926923 16.5508856,7.11926923 15.803428,7.87311538 Z" id="Shape"></path>
            </g>
        </g>
    </g>
</svg>