<?xml version="1.0" encoding="UTF-8"?>
<svg width="104px" height="104px" viewBox="0 0 104 104" version="1.1" xmlns="http://www.w3.org/2000/svg" xmlns:xlink="http://www.w3.org/1999/xlink">
    <!-- Generator: sketchtool 48.2 (47327) - http://www.bohemiancoding.com/sketch -->
    <title>728FA1ED-F4D5-4CF2-860D-607E6B7B9D30</title>
    <desc>Created with sketchtool.</desc>
    <defs></defs>
    <g id="Symbols" stroke="none" stroke-width="1" fill="none" fill-rule="evenodd">
        <g id="icon/ogromniy_vibor_104">
            <rect id="Rectangle-5" fill="#EBEBEB" opacity="0.800000012" x="8" y="8" width="88" height="88" rx="44"></rect>
            <path d="M52.5,16 C51.6717,16 51,16.813852 51,17.8178513 L51,27.1821487 C51,28.186148 51.6717,29 52.5,29 C53.3283,29 54,28.186148 54,27.1821487 L54,17.8178513 C54,16.813852 53.3283,16 52.5,16 Z" id="Shape" fill="#BA006D" fill-rule="nonzero"></path>
            <path d="M65.4616598,20.1511859 C64.6333598,20.1511859 63.9616598,20.902434 63.9616598,21.8292025 L63.9616598,30.4731694 C63.9616598,31.3999379 64.6333598,32.1511859 65.4616598,32.1511859 C66.2899598,32.1511859 66.9616598,31.3999379 66.9616598,30.4731694 L66.9616598,21.8292025 C66.9616598,20.902434 66.2899598,20.1511859 65.4616598,20.1511859 Z" id="Shape-Copy" fill="#BA006D" fill-rule="nonzero" transform="translate(65.461660, 26.151186) rotate(20.000000) translate(-65.461660, -26.151186) "></path>
            <path d="M77.3033009,26.3033009 C76.4750009,26.3033009 75.8033009,27.0545489 75.8033009,27.9813174 L75.8033009,36.6252843 C75.8033009,37.5520528 76.4750009,38.3033009 77.3033009,38.3033009 C78.1316009,38.3033009 78.8033009,37.5520528 78.8033009,36.6252843 L78.8033009,27.9813174 C78.8033009,27.0545489 78.1316009,26.3033009 77.3033009,26.3033009 Z" id="Shape-Copy-2" fill="#BA006D" fill-rule="nonzero" transform="translate(77.303301, 32.303301) rotate(45.000000) translate(-77.303301, -32.303301) "></path>
            <path d="M39.5,20 C38.6717,20 38,20.751248 38,21.6780166 L38,30.3219834 C38,31.248752 38.6717,32 39.5,32 C40.3283,32 41,31.248752 41,30.3219834 L41,21.6780166 C41,20.751248 40.3283,20 39.5,20 Z" id="Shape-Copy-4" fill="#BA006D" fill-rule="nonzero" transform="translate(39.500000, 26.000000) rotate(-20.000000) translate(-39.500000, -26.000000) "></path>
            <path d="M27.5,26 C26.6717,26 26,26.751248 26,27.6780166 L26,36.3219834 C26,37.248752 26.6717,38 27.5,38 C28.3283,38 29,37.248752 29,36.3219834 L29,27.6780166 C29,26.751248 28.3283,26 27.5,26 Z" id="Shape-Copy-3" fill="#BA006D" fill-rule="nonzero" transform="translate(27.500000, 32.000000) rotate(-45.000000) translate(-27.500000, -32.000000) "></path>
            <path d="M28,53.5 C27.7238576,53.5 27.5,53.7238576 27.5,54 L27.5,83 C27.5,83.8284271 28.1715729,84.5 29,84.5 L76,84.5 C76.8284271,84.5 77.5,83.8284271 77.5,83 L77.5,54 C77.5,53.7238576 77.2761424,53.5 77,53.5 L28,53.5 Z" id="Rectangle" stroke="#4A4A4A" stroke-width="3"></path>
            <path d="M28,53 L36.6999218,42.3667622 C36.8898508,42.1346268 37.173946,42 37.4738791,42 L68.4907754,42 C68.810712,42 69.1113338,42.153084 69.2995115,42.4118283 L77,53" id="Path-15" stroke="#4A4A4A" stroke-width="3" stroke-linecap="round" stroke-linejoin="round"></path>
            <rect id="Rectangle-Copy" stroke="#4A4A4A" stroke-width="3" x="43.5" y="59.5" width="18" height="6" rx="3"></rect>
        </g>
    </g>
</svg>