<?xml version="1.0" encoding="UTF-8"?>
<svg width="104px" height="104px" viewBox="0 0 104 104" version="1.1" xmlns="http://www.w3.org/2000/svg" xmlns:xlink="http://www.w3.org/1999/xlink">
    <!-- Generator: sketchtool 48.2 (47327) - http://www.bohemiancoding.com/sketch -->
    <title>D90DBF70-35FD-46A8-A484-3076CD50C198</title>
    <desc>Created with sketchtool.</desc>
    <defs></defs>
    <g id="Symbols" stroke="none" stroke-width="1" fill="none" fill-rule="evenodd">
        <g id="icon/original_production_104">
            <rect id="Rectangle-5" fill="#EBEBEB" opacity="0.800000012" x="8" y="8" width="88" height="88" rx="44"></rect>
            <g id="diamond" transform="translate(17.000000, 17.000000)" fill-rule="nonzero">
                <path d="M69.6036561,30.3465039 L57.54083,16.856875 C57.2782609,16.5632031 56.9007312,16.3950391 56.504249,16.3950391 L13.4958893,16.3950391 C13.0994071,16.3950391 12.7218775,16.5632031 12.4593083,16.856875 L0.396343874,30.3465039 C0.0361067194,30.7494141 -0.0517391304,31.3234961 0.171818182,31.8137695 C0.256067194,31.9986133 0.378913043,32.1583008 0.528320158,32.2858594 C0.531225296,32.2890039 0.533438735,32.2925586 0.536343874,32.2958398 L33.9650791,69.5400781 C34.2276482,69.8326563 34.6043478,70 35,70 C35.3956522,70 35.7723518,69.8325195 36.0349209,69.5400781 L69.4636561,32.2958398 C69.4665613,32.2926953 69.468913,32.2891406 69.4716798,32.2858594 C69.6209486,32.1583008 69.7437945,31.9984766 69.8281818,31.8137695 C70.0517391,31.3234961 69.9638933,30.7494141 69.6036561,30.3465039 Z M54.0512055,19.1292773 L47.9032411,28.9243555 L38.0506719,19.1292773 L54.0512055,19.1292773 Z M44.9679447,29.884668 L25.0320553,29.884668 L35,19.9748828 L44.9679447,29.884668 Z M31.9493281,19.1294141 L22.0967589,28.9244922 L15.9487945,19.1294141 L31.9493281,19.1294141 Z M13.2811858,20.0667578 L19.4435375,29.884668 L4.50171937,29.884668 L13.2811858,20.0667578 Z M4.52496047,32.619043 L20.8736957,32.619043 L32.1672134,63.4164453 L4.52496047,32.619043 Z M37.8841107,63.3592969 L45.7747431,42.25375 C46.0395257,41.5454102 45.6732016,40.7591406 44.9566008,40.4974609 C44.239585,40.2355078 43.4441304,40.5976758 43.1794862,41.3060156 L35.0125889,63.1505273 L23.8166008,32.619043 L65.4750395,32.619043 L37.8841107,63.3592969 Z M50.5564625,29.884668 L56.7188142,20.0667578 L65.4982806,29.884668 L50.5564625,29.884668 Z" id="Shape" fill="#4A4A4A"></path>
                <path d="M35,0 C34.236087,0 33.6166008,0.612089844 33.6166008,1.3671875 L33.6166008,8.40998047 C33.6166008,9.16507813 34.236087,9.77716797 35,9.77716797 C35.763913,9.77716797 36.3833992,9.16507813 36.3833992,8.40998047 L36.3833992,1.3671875 C36.3833992,0.612089844 35.763913,0 35,0 Z" id="Shape" fill="#BA006D"></path>
                <path d="M47.5975099,5.40367188 C47.0572925,4.86978516 46.1816008,4.86978516 45.6409684,5.40367188 L40.6017984,10.3836523 C40.061581,10.9175391 40.061581,11.7832422 40.6017984,12.3171289 C40.8721146,12.5841406 41.2261265,12.7175781 41.5801383,12.7175781 C41.9341502,12.7175781 42.2881621,12.5840039 42.5583399,12.3171289 L47.5975099,7.33714844 C48.1377273,6.80326172 48.1377273,5.93755859 47.5975099,5.40367188 Z" id="Shape" fill="#BA006D"></path>
                <path d="M29.1285771,10.3836523 L24.0895455,5.40367188 C23.5494664,4.86978516 22.6737747,4.86978516 22.133004,5.40367188 C21.5927866,5.93755859 21.5927866,6.80326172 22.133004,7.33714844 L27.1721739,12.3171289 C27.4423518,12.5841406 27.7963636,12.7175781 28.1503755,12.7175781 C28.5043874,12.7175781 28.8583992,12.5840039 29.1285771,12.3171289 C29.6687945,11.7832422 29.6687945,10.9175391 29.1285771,10.3836523 Z" id="Shape" fill="#BA006D"></path>
                <ellipse id="Oval" fill="#BA006D" cx="46.2650198" cy="36.6898438" rx="1.38339921" ry="1.3671875"></ellipse>
            </g>
        </g>
    </g>
</svg>