<?xml version="1.0" encoding="UTF-8"?>
<svg width="23px" height="17px" viewBox="0 0 23 17" version="1.1" xmlns="http://www.w3.org/2000/svg" xmlns:xlink="http://www.w3.org/1999/xlink">
    <!-- Generator: Sketch 48.2 (47327) - http://www.bohemiancoding.com/sketch -->
    <title>Group</title>
    <desc>Created with Sketch.</desc>
    <defs></defs>
    <g id="navigation" stroke="none" stroke-width="1" fill="none" fill-rule="evenodd" transform="translate(-160.000000, -99.000000)">
        <g id="Group-3" transform="translate(160.000000, 91.000000)" fill="#FFFFFF">
            <g id="Group-2">
                <g id="Group" transform="translate(0.000000, 8.000000)">
                    <g id="bottle" transform="translate(7.000000, 0.000000)" fill-rule="nonzero">
                        <path d="M14.2987207,10.7725547 L14.2987207,8.5 C14.2987207,6.22957031 13.3926534,4.09504102 11.7474823,2.48957031 C10.1022431,0.884132812 7.91484024,0 5.58817067,0 L5.07778688,0 L5.07778688,2.25177166 L3.03625171,2.25177166 L3.03625171,4.98013672 C2.79950169,5.09840625 2.57016924,5.23347656 2.35005772,5.38538086 C0.71550259,6.51325781 -0.174096357,8.44172852 0.0284579568,10.4181777 L0.702947149,17 L10.4733942,17 L11.1478494,10.4181777 C11.3503696,8.44172852 10.4608047,6.51325781 8.82624959,5.38538086 C8.60613807,5.23347656 8.37683965,5.09840625 8.14008962,4.98013672 L8.14008962,2.25177166 L6.09855446,2.25177166 L6.09855446,1.01242969 C10.1015626,1.26975391 13.2779531,4.52976953 13.2779531,8.5 L13.2779531,10.7725547 C12.2916875,11.0930312 11.5766738,12.3282871 11.5766738,13.8457031 C11.5766738,15.6144668 12.5481723,17 13.7883369,17 C15.0285015,17 16,15.6144668 16,13.8457031 C16,12.3282871 15.2849863,11.092998 14.2987207,10.7725547 Z M8.23692644,6.18806974 C9.57198836,7.09745689 10.2981964,8.65587254 10.1321516,10.255256 L9.54959952,15.8666667 L1.62674181,15.8666667 L1.04415573,10.255256 C0.878110866,8.65587254 1.60431895,7.09742412 2.93938087,6.18806974 C3.71659331,5.65873281 4.63252806,5.37890625 5.58817067,5.37890625 C6.54377925,5.37890625 7.459714,5.65873281 8.23692644,6.18806974 Z M7.11932204,3.38671875 L7.11932204,4.58880469 C6.62588299,4.45273828 6.11189249,4.3828125 5.58813664,4.3828125 C5.06441482,4.3828125 4.55045834,4.45273828 4.05701929,4.58880469 L4.05701929,3.38671875 L7.11932204,3.38671875 Z M13.7883369,16.0039062 C13.2250433,16.0039062 12.5974414,15.117582 12.5974414,13.8457031 C12.5974414,12.5738242 13.2250433,11.6875 13.7883369,11.6875 C14.3516305,11.6875 14.9792324,12.5738242 14.9792324,13.8457031 C14.9792324,15.117582 14.3516305,16.0039062 13.7883369,16.0039062 Z" id="Shape"></path>
                    </g>
                    <rect id="Rectangle-2" x="0" y="16" width="8" height="1"></rect>
                </g>
            </g>
        </g>
    </g>
</svg>