<?xml version="1.0" encoding="UTF-8"?>
<svg width="24px" height="24px" viewBox="0 0 24 24" version="1.1" xmlns="http://www.w3.org/2000/svg" xmlns:xlink="http://www.w3.org/1999/xlink">
    <!-- Generator: sketchtool 48.2 (47327) - http://www.bohemiancoding.com/sketch -->
    <title>03DBD740-D9A5-4005-954E-01D6BD3BB797</title>
    <desc>Created with sketchtool.</desc>
    <defs></defs>
    <g id="Symbols" stroke="none" stroke-width="1" fill="none" fill-rule="evenodd">
        <g id="icon/thumb_down_black_24">
            <polygon id="Shape" points="0 0 24 0 24 24 0 24"></polygon>
            <path d="M15,3 L6,3 C5.17,3 4.46,3.5 4.16,4.22 L1.14,11.27 C1.05,11.5 1,11.74 1,12 L1,13.91 L1.01,13.92 L1,14 C1,15.1 1.9,16 3,16 L9.31,16 L8.36,20.57 L8.33,20.89 C8.33,21.3 8.5,21.68 8.77,21.95 L9.83,23 L16.42,16.41 C16.78,16.05 17,15.55 17,15 L17,5 C17,3.9 16.1,3 15,3 Z M19,3 L19,15 L23,15 L23,3 L19,3 Z" id="Shape" fill="#C0C0C0" fill-rule="nonzero"></path>
        </g>
    </g>
</svg>