<svg width="40" height="40" xmlns="http://www.w3.org/2000/svg"><g fill="none" fill-rule="evenodd"><path d="M0 0h40v40H0z"/><g opacity=".8" transform="rotate(180 18 18)"><circle stroke="#3B3B3B" cx="16" cy="16" r="16.5"/><path d="M14.416 21.764a.822.822 0 0 1-.587.236.857.857 0 0 1-.586-.236.792.792 0 0 1 0-1.141L17.997 16l-4.754-4.623a.792.792 0 0 1 0-1.14.847.847 0 0 1 1.173 0l5.341 5.193A.777.777 0 0 1 20 16c0 .216-.08.413-.243.57l-5.34 5.194z" fill="#3B3B3B" fill-rule="nonzero"/></g></g></svg>