<svg width="24" height="24" xmlns="http://www.w3.org/2000/svg"><g fill="none" fill-rule="evenodd"><path d="M0 0h24v24H0z"/><g fill="#668FF9"><path d="M12 4a1 1 0 0 1 1 1v14a.996.996 0 0 1-1 .996h-.004a1 1 0 0 1-.996-1V5a1 1 0 0 1 1-1z"/><path d="M17.764 15.416A.822.822 0 0 0 18 14.83a.857.857 0 0 0-.236-.586.792.792 0 0 0-1.141 0L12 18.997l-4.623-4.754a.792.792 0 0 0-1.14 0 .847.847 0 0 0 0 1.173l5.193 5.341A.777.777 0 0 0 12 21c.216 0 .413-.08.57-.243l5.194-5.34z" fill-rule="nonzero"/></g></g></svg>