<svg width="104" height="104" xmlns="http://www.w3.org/2000/svg"><g fill="none" fill-rule="evenodd"><path d="M0 0h104v104H0z"/><rect fill="#EBEBEB" opacity=".8" x="8" y="8" width="88" height="88" rx="44"/><g transform="translate(52 4)"><circle stroke="#BA006D" stroke-width="3" cx="24" cy="24" r="22.5"/><rect fill="#BA006D" transform="rotate(90 24.5 17.5)" x="17" y="16" width="15" height="3" rx="1.5"/><rect fill="#BA006D" transform="rotate(-180 31 23.5)" x="23" y="22" width="16" height="3" rx="1.5"/></g><g transform="translate(4 50)" fill="#4A4A4A"><path d="M60 47a4 4 0 1 0 0-8 4 4 0 0 0 0 8zm0 3a7 7 0 1 1 0-14 7 7 0 0 1 0 14zm-37-3a4 4 0 1 0 0-8 4 4 0 0 0 0 8zm0 3a7 7 0 1 1 0-14 7 7 0 0 1 0 14zm31-33v9h9v-5.885L59.993 17H54zm0-3h5.993a3 3 0 0 1 2.159.916l3.006 3.115A3 3 0 0 1 66 20.115V26a3 3 0 0 1-3 3h-9a3 3 0 0 1-3-3v-9a3 3 0 0 1 3-3z" fill-rule="nonzero"/><rect y="29" width="21" height="3" rx="1.5"/><rect x="31" y="39" width="21" height="3" rx="1.5"/><rect x="8" width="40" height="3" rx="1.5"/><rect x="8" y="39" width="7" height="3" rx="1.5"/><rect x="68" y="39" width="5" height="3" rx="1.5"/><rect transform="rotate(-90 9.5 37.5)" x="5" y="36" width="9" height="3" rx="1.5"/><rect transform="rotate(-90 9.5 7)" x="2.5" y="5.5" width="14" height="3" rx="1.5"/><rect x="3" y="22" width="21" height="3" rx="1.5"/><rect x="6" y="15" width="21" height="3" rx="1.5"/><rect x="45" y="7" width="18" height="3" rx="1.5"/><rect x="45" width="3" height="42" rx="1.5"/><rect x="70" y="16" width="3" height="26" rx="1.5"/><path d="M60.46 9.655a1.5 1.5 0 1 1 1.942-2.287l10.07 9a1.5 1.5 0 1 1-1.942 2.287l-10.07-9z" fill-rule="nonzero"/></g></g></svg>