<svg width="104" height="104" xmlns="http://www.w3.org/2000/svg"><g fill="none" fill-rule="evenodd"><rect fill="#EBEBEB" opacity=".8" x="8" y="8" width="88" height="88" rx="44"/><g transform="translate(18 34)"><path stroke="#4A4A4A" stroke-width="3" stroke-linecap="round" stroke-linejoin="round" d="M.596 46.204l21.957 6.497 22.976-6.497 22.97 7.014V7.43l-22.97-5.2-22.976 5.2L.596.808z"/><rect fill="#4A4A4A" transform="rotate(18 5.694 25.126)" x=".194" y="23.626" width="11" height="3" rx="1.5"/><rect fill="#4A4A4A" transform="rotate(18 56.876 27.135)" x="44.876" y="25.635" width="24" height="3" rx="1.5"/><rect fill="#4A4A4A" transform="rotate(-17 33.914 26.943)" x="21.914" y="25.443" width="24" height="3" rx="1.5"/><rect fill="#4A4A4A" transform="rotate(18 17.694 29.126)" x="12.194" y="27.626" width="11" height="3" rx="1.5"/><rect fill="#4A4A4A" transform="rotate(90 22.5 30)" x="-.5" y="28.5" width="46" height="3" rx="1.5"/><rect fill="#4A4A4A" x="44" y="36" width="3" height="11" rx="1.5"/><rect fill="#4A4A4A" x="44" y="2" width="3" height="32" rx="1.5"/></g><g transform="translate(39 17)" stroke="#BA006D" stroke-width="3"><path d="M12.973 34.979c.286.062.564-.011.834-.218 1.44-1.106 2.887-3.052 3.491-3.748 4.586-5.275 6.752-9.926 7.643-12.026.768-1.81 1.784-6.802.297-10.416-.66-1.602-1.853-3.31-3.393-4.692C19.285 1.579 15.867 0 13.075 0 11.881 0 9.321.113 7.19 1.404c-2.15 1.302-3.597 2.24-5.267 4.917C.71 8.265-.165 10.7.026 13.707c.164 2.565 1.13 5.866 2.312 8.505 1.975 4.412 5.355 7.689 6.939 9.797 1.31 1.745 2.542 2.734 3.696 2.97z" fill="#EFEFEF"/><circle cx="13" cy="13" r="6.5"/></g></g></svg>