<svg width="24" height="24" xmlns="http://www.w3.org/2000/svg"><g fill="#666561"><path d="M21.953 12.252a10.992 10.992 0 0 0-4.014-4.527A11.034 11.034 0 0 0 12 6c-2.114 0-4.168.597-5.94 1.725a10.993 10.993 0 0 0-3.981 4.456.684.684 0 0 0-.01.617 10.992 10.992 0 0 0 3.991 4.477A11.034 11.034 0 0 0 12 19c2.114 0 4.168-.597 5.94-1.725a10.992 10.992 0 0 0 3.992-4.476.686.686 0 0 0 .021-.547zM12 17.623c-3.565 0-6.877-2-8.53-5.123C5.122 9.377 8.434 7.377 12 7.377c3.566 0 6.878 2 8.531 5.123-1.653 3.123-4.965 5.123-8.53 5.123z"/><path d="M12 9.467A3.042 3.042 0 0 0 8.957 12.5 3.042 3.042 0 0 0 12 15.533a3.042 3.042 0 0 0 3.043-3.033A3.042 3.042 0 0 0 12 9.467zm0 4.684c-.913 0-1.657-.74-1.657-1.651a1.657 1.657 0 0 1 3.314 0c0 .91-.744 1.651-1.657 1.651z"/></g></svg>