<svg width="24" height="24" xmlns="http://www.w3.org/2000/svg"><g fill="none" fill-rule="evenodd"><path d="M0 0h24v24H0z"/><path d="M19.536 5.5a4.917 4.917 0 0 0-3.52-1.47 4.93 4.93 0 0 0-3.524 1.474L12 6l-.5-.504A4.941 4.941 0 0 0 7.973 4.02a4.924 4.924 0 0 0-3.516 1.47A4.995 4.995 0 0 0 3 9.041c0 1.343.522 2.6 1.464 3.55l7.162 7.223a.512.512 0 0 0 .725.004l7.177-7.211a5.014 5.014 0 0 0 1.46-3.554A4.991 4.991 0 0 0 19.537 5.5zm-.733 6.373L11.99 18.72l-6.8-6.857a3.977 3.977 0 0 1-1.16-2.82 3.96 3.96 0 0 1 1.156-2.815 3.904 3.904 0 0 1 2.788-1.165 3.92 3.92 0 0 1 2.8 1.169l.86.869a.51.51 0 0 0 .73 0l.854-.862a3.916 3.916 0 0 1 2.795-1.169 3.92 3.92 0 0 1 2.791 1.166 3.973 3.973 0 0 1 1.156 2.819 3.957 3.957 0 0 1-1.156 2.82z" fill="#666561" fill-rule="nonzero"/></g></svg>