<svg width="104" height="104" xmlns="http://www.w3.org/2000/svg"><g fill="none" fill-rule="evenodd"><rect fill="#EBEBEB" opacity=".8" x="8" y="8" width="88" height="88" rx="44"/><path d="M52.5 16c-.828 0-1.5.814-1.5 1.818v9.364c0 1.004.672 1.818 1.5 1.818s1.5-.814 1.5-1.818v-9.364C54 16.814 53.328 16 52.5 16zm15.014 4.513c-.779-.283-1.667.193-1.984 1.064l-2.956 8.122c-.317.871.057 1.807.836 2.09.778.284 1.666-.193 1.983-1.063l2.956-8.123c.317-.871-.057-1.807-.835-2.09zm14.032 7.547c-.586-.585-1.592-.529-2.247.127l-6.112 6.112c-.656.655-.712 1.661-.126 2.247.585.586 1.592.53 2.247-.126l6.112-6.112c.655-.655.712-1.662.126-2.247zm-44.098-7.698c-.778.283-1.153 1.219-.836 2.09l2.957 8.122c.317.871 1.205 1.347 1.983 1.064.778-.283 1.153-1.219.836-2.09l-2.957-8.122c-.317-.871-1.205-1.347-1.983-1.064zm-14.191 7.395c-.585.586-.53 1.592.126 2.248l6.112 6.112c.656.655 1.662.711 2.248.126.585-.586.53-1.592-.126-2.248l-6.112-6.112c-.656-.655-1.662-.711-2.248-.126z" fill="#BA006D" fill-rule="nonzero"/><path d="M28 53.5a.5.5 0 0 0-.5.5v29a1.5 1.5 0 0 0 1.5 1.5h47a1.5 1.5 0 0 0 1.5-1.5V54a.5.5 0 0 0-.5-.5H28z" stroke="#4A4A4A" stroke-width="3"/><path d="M28 53l8.7-10.633a1 1 0 0 1 .774-.367H68.49a1 1 0 0 1 .809.412L77 53" stroke="#4A4A4A" stroke-width="3" stroke-linecap="round" stroke-linejoin="round"/><rect stroke="#4A4A4A" stroke-width="3" x="43.5" y="59.5" width="18" height="6" rx="3"/></g></svg>