<svg width="104" height="104" xmlns="http://www.w3.org/2000/svg"><g fill="none" fill-rule="evenodd"><rect fill="#EBEBEB" opacity=".8" x="8" y="8" width="88" height="88" rx="44"/><g transform="translate(17 17)" fill-rule="nonzero"><path d="M69.604 30.347L57.54 16.857a1.39 1.39 0 0 0-1.037-.462H13.496a1.39 1.39 0 0 0-1.037.462L.396 30.347a1.355 1.355 0 0 0 .132 1.939l.008.01 33.43 37.244a1.39 1.39 0 0 0 2.07 0l33.428-37.244.008-.01a1.355 1.355 0 0 0 .132-1.94zM54.05 19.129l-6.148 9.795-9.852-9.795h16zm-9.083 10.756H25.032L35 19.975l9.968 9.91zM31.949 19.129l-9.852 9.795-6.148-9.795h16zm-18.668.938l6.163 9.818H4.502l8.78-9.818zM4.525 32.619h16.349l11.293 30.797L4.525 32.62zm33.36 30.74l7.89-21.105a1.363 1.363 0 0 0-.818-1.757 1.388 1.388 0 0 0-1.778.809l-8.166 21.845-11.196-30.532h41.658l-27.59 30.74zm12.671-33.474l6.163-9.818 8.78 9.818H50.555z" fill="#4A4A4A"/><path d="M35 0c-.764 0-1.383.612-1.383 1.367V8.41c0 .755.62 1.367 1.383 1.367.764 0 1.383-.612 1.383-1.367V1.367C36.383.612 35.763 0 35 0zm12.598 5.404a1.395 1.395 0 0 0-1.957 0l-5.04 4.98c-.54.534-.54 1.4 0 1.933.271.267.625.4.98.4.353 0 .707-.133.977-.4l5.04-4.98c.54-.534.54-1.4 0-1.933zm-18.469 4.98l-5.04-4.98a1.395 1.395 0 0 0-1.956 0c-.54.534-.54 1.4 0 1.933l5.04 4.98c.27.267.623.4.977.4s.708-.133.979-.4c.54-.534.54-1.4 0-1.933z" fill="#BA006D"/><ellipse fill="#BA006D" cx="46.265" cy="36.69" rx="1.383" ry="1.367"/></g></g></svg>