<svg width="23" height="17" xmlns="http://www.w3.org/2000/svg"><g fill="#FFF" fill-rule="evenodd"><path d="M21.299 10.773V8.5c0-2.27-.906-4.405-2.552-6.01A8.763 8.763 0 0 0 12.588 0h-.51v2.252h-2.042V4.98a5.44 5.44 0 0 0-3.008 5.438L7.703 17h9.77l.675-6.582A5.44 5.44 0 0 0 15.14 4.98V2.252H13.1v-1.24c4.003.258 7.179 3.518 7.179 7.488v2.273c-.986.32-1.701 1.555-1.701 3.073 0 1.768.971 3.154 2.211 3.154C22.028 17 23 15.614 23 13.846c0-1.518-.715-2.753-1.701-3.073zm-6.062-4.585a4.372 4.372 0 0 1 1.895 4.067l-.582 5.612H8.627l-.583-5.612A4.372 4.372 0 0 1 9.94 6.188a4.684 4.684 0 0 1 2.65-.81c.955 0 1.87.28 2.648.81zm-1.118-2.801v1.202a5.754 5.754 0 0 0-1.53-.206c-.525 0-1.039.07-1.532.206V3.387h3.062zm6.67 12.617c-.564 0-1.192-.886-1.192-2.158 0-1.272.628-2.159 1.191-2.159.564 0 1.191.887 1.191 2.159 0 1.272-.627 2.158-1.19 2.158z" fill-rule="nonzero"/><path d="M0 16h8v1H0z"/></g></svg>