<svg width="24" height="24" xmlns="http://www.w3.org/2000/svg"><g fill="none" fill-rule="evenodd"><path d="M0 0h24v24H0z"/><path d="M17.22 14.146c-.369-.384-.813-.589-1.284-.589-.467 0-.915.201-1.298.585l-1.2 1.196-.293-.152a4.826 4.826 0 0 1-.376-.201c-1.124-.714-2.145-1.644-3.125-2.848-.475-.6-.794-1.105-1.025-1.618.311-.285.6-.58.88-.866.107-.106.213-.216.32-.322.797-.798.797-1.83 0-2.628L8.782 5.666c-.118-.118-.24-.24-.353-.36a17.93 17.93 0 0 0-.714-.707c-.369-.365-.81-.558-1.272-.558-.464 0-.912.193-1.292.558l-.007.008-1.291 1.302a2.778 2.778 0 0 0-.824 1.766c-.091 1.109.235 2.142.486 2.818.615 1.66 1.534 3.197 2.905 4.845a17.87 17.87 0 0 0 5.95 4.66c.874.414 2.04.903 3.342.987.08.004.164.008.24.008.877 0 1.613-.316 2.19-.942.004-.008.012-.012.016-.02.197-.238.425-.455.664-.686.164-.156.33-.32.494-.49.376-.391.573-.847.573-1.314 0-.471-.2-.923-.584-1.303l-2.085-2.092zm1.36 3.999c-.004 0-.004.003 0 0-.149.159-.3.303-.464.463a9.985 9.985 0 0 0-.733.76c-.383.41-.835.603-1.428.603-.057 0-.117 0-.174-.004-1.128-.072-2.176-.512-2.962-.888a16.869 16.869 0 0 1-5.605-4.39c-1.295-1.56-2.161-3.004-2.735-4.553-.353-.946-.482-1.683-.425-2.378.038-.444.209-.812.524-1.127l1.295-1.295c.186-.175.384-.27.577-.27.24 0 .433.144.555.266l.011.011c.232.217.452.44.684.68.117.122.239.243.36.368l1.037 1.037c.403.403.403.775 0 1.177-.11.11-.216.22-.327.327-.319.326-.622.63-.953.926-.007.008-.015.012-.019.02-.326.326-.265.645-.197.861l.011.035c.27.653.65 1.268 1.227 2l.004.005c1.048 1.29 2.153 2.297 3.372 3.068.155.099.315.179.467.254.137.069.266.133.376.202.015.007.03.019.045.026.13.065.251.095.376.095.316 0 .513-.197.578-.262l1.298-1.298c.13-.13.334-.285.574-.285.235 0 .429.148.547.277l.007.008 2.093 2.092c.39.387.39.786.003 1.189zM12.724 7.28a4.816 4.816 0 0 1 2.62 1.36 4.84 4.84 0 0 1 1.36 2.62.51.51 0 0 0 .504.425c.03 0 .057-.004.088-.008a.513.513 0 0 0 .421-.592 5.857 5.857 0 0 0-1.644-3.17 5.857 5.857 0 0 0-3.17-1.645.515.515 0 0 0-.593.418.507.507 0 0 0 .414.592zm8.248 3.657a9.636 9.636 0 0 0-2.708-5.222 9.636 9.636 0 0 0-5.221-2.707.51.51 0 1 0-.167 1.01c1.77.3 3.383 1.14 4.667 2.419a8.603 8.603 0 0 1 2.419 4.667.51.51 0 0 0 .505.425.503.503 0 0 0 .505-.592z" fill="#666561" fill-rule="nonzero"/></g></svg>